<svg xmlns="http://www.w3.org/2000/svg" width="14" height="12" viewBox="0 0 14 12">
  <metadata><?xpacket begin="﻿" id="W5M0MpCehiHzreSzNTczkc9d"?>
<x:xmpmeta xmlns:x="adobe:ns:meta/" x:xmptk="Adobe XMP Core 5.6-c138 79.159824, 2016/09/14-01:09:01        ">
   <rdf:RDF xmlns:rdf="http://www.w3.org/1999/02/22-rdf-syntax-ns#">
      <rdf:Description rdf:about=""/>
   </rdf:RDF>
</x:xmpmeta>
                                                                                                    
                                                                                                    
                                                                                                    
                                                                                                    
                                                                                                    
                                                                                                    
                                                                                                    
                                                                                                    
                                                                                                    
                                                                                                    
                                                                                                    
                                                                                                    
                                                                                                    
                                                                                                    
                                                                                                    
                                                                                                    
                                                                                                    
                                                                                                    
                                                                                                    
                                                                                                    
                           
<?xpacket end="w"?></metadata>
<defs>
    <style>
      .cls-1, .cls-2 {
        fill: #0af;
      }

      .cls-1 {
        opacity: 0.1;
      }

      .cls-2 {
        fill-rule: evenodd;
      }
    </style>
  </defs>
  <rect id="Computer_screen" data-name="Computer screen" class="cls-1" x="1" y="1" width="12" height="8"/>
  <path id="Computer_icon" data-name="Computer icon" class="cls-2" d="M261.5,81.992h11a1.5,1.5,0,0,1,1.5,1.5v7a1.5,1.5,0,0,1-1.5,1.5h-11a1.5,1.5,0,0,1-1.5-1.5v-7A1.5,1.5,0,0,1,261.5,81.992Zm4.491,10.076v1.708s-2.609-.729-1.616-0.729h5.157c1.374,0-1.533.719-1.533,0.719V92.078Zm-4-9.076h10a1,1,0,0,1,1,1v6.02a1,1,0,0,1-1,1h-10a1,1,0,0,1-1-1v-6.02A1,1,0,0,1,261.987,82.992ZM264,93h6v1h-6V93Z" transform="translate(-260 -82)"/>
</svg>
