<svg xmlns="http://www.w3.org/2000/svg" width="18.031" height="17" viewBox="0 0 18.031 17">
  <metadata><?xpacket begin="﻿" id="W5M0MpCehiHzreSzNTczkc9d"?>
<x:xmpmeta xmlns:x="adobe:ns:meta/" x:xmptk="Adobe XMP Core 5.6-c138 79.159824, 2016/09/14-01:09:01        ">
   <rdf:RDF xmlns:rdf="http://www.w3.org/1999/02/22-rdf-syntax-ns#">
      <rdf:Description rdf:about=""/>
   </rdf:RDF>
</x:xmpmeta>
                                                                                                    
                                                                                                    
                                                                                                    
                                                                                                    
                                                                                                    
                                                                                                    
                                                                                                    
                                                                                                    
                                                                                                    
                                                                                                    
                                                                                                    
                                                                                                    
                                                                                                    
                                                                                                    
                                                                                                    
                                                                                                    
                                                                                                    
                                                                                                    
                                                                                                    
                                                                                                    
                           
<?xpacket end="w"?></metadata>
<defs>
    <style>
      .cls-1 {
        fill: #9e9e9e;
        fill-rule: evenodd;
      }
    </style>
  </defs>
  <path id="Feedback" class="cls-1" d="M23.042,757H37.051a2,2,0,0,1,2,2v10a2,2,0,0,1-2,2H23.042a2,2,0,0,1-2-2V759A2,2,0,0,1,23.042,757Zm1.222,13H27.82a0.252,0.252,0,0,1,.192.386l-1.774,3.487a0.209,0.209,0,0,1-.385,0c-0.1-.189-1.669-3.272-1.778-3.5A0.251,0.251,0,0,1,24.264,770Zm-0.221-11H36.05a1,1,0,1,1,0,2H24.043A1,1,0,1,1,24.043,759Zm0,4H36.05a1,1,0,1,1,0,2H24.043A1,1,0,1,1,24.043,763Zm0,4H36.05a1,1,0,1,1,0,2H24.043A1,1,0,1,1,24.043,767Z" transform="translate(-21.031 -757)"/>
</svg>
