<svg xmlns="http://www.w3.org/2000/svg" width="18" height="18" viewBox="0 0 18 18">
  <metadata><?xpacket begin="﻿" id="W5M0MpCehiHzreSzNTczkc9d"?>
<x:xmpmeta xmlns:x="adobe:ns:meta/" x:xmptk="Adobe XMP Core 5.6-c138 79.159824, 2016/09/14-01:09:01        ">
   <rdf:RDF xmlns:rdf="http://www.w3.org/1999/02/22-rdf-syntax-ns#">
      <rdf:Description rdf:about=""/>
   </rdf:RDF>
</x:xmpmeta>
                                                                                                    
                                                                                                    
                                                                                                    
                                                                                                    
                                                                                                    
                                                                                                    
                                                                                                    
                                                                                                    
                                                                                                    
                                                                                                    
                                                                                                    
                                                                                                    
                                                                                                    
                                                                                                    
                                                                                                    
                                                                                                    
                                                                                                    
                                                                                                    
                                                                                                    
                                                                                                    
                           
<?xpacket end="w"?></metadata>
<defs>
    <style>
      .cls-1 {
        fill: #167ac0;
        fill-rule: evenodd;
      }
    </style>
  </defs>
  <path id="Settings_icon" data-name="Settings icon" class="cls-1" d="M1906.48,78.252a0.676,0.676,0,0,0,.49-0.542s0.03-.317.03-0.711-0.03-.711-0.03-0.711a0.676,0.676,0,0,0-.49-0.542l-2.27-.332a0.816,0.816,0,0,1-.55-0.493l-0.19-.453a0.848,0.848,0,0,1,.05-0.744l1.36-1.832a0.644,0.644,0,0,0-.05-0.716l-1.01-1a0.621,0.621,0,0,0-.71-0.053l-1.83,1.364a0.866,0.866,0,0,1-.75.047l-0.45-.187a0.861,0.861,0,0,1-.5-0.558l-0.33-2.263a0.656,0.656,0,0,0-.54-0.488S1898.39,68,1898,68s-0.71.034-.71,0.034a0.656,0.656,0,0,0-.54.488l-0.33,2.263a0.861,0.861,0,0,1-.5.558l-0.45.188a0.864,0.864,0,0,1-.75-0.047l-1.83-1.364a0.621,0.621,0,0,0-.71.053l-1.01,1a0.645,0.645,0,0,0-.05.716l1.36,1.832a0.848,0.848,0,0,1,.05.744l-0.19.453a0.816,0.816,0,0,1-.55.493l-2.27.332a0.676,0.676,0,0,0-.49.542S1889,76.606,1889,77s0.03,0.711.03,0.711a0.675,0.675,0,0,0,.49.541l2.27,0.332a0.816,0.816,0,0,1,.55.493l0.19,0.454a0.848,0.848,0,0,1-.05.744l-1.36,1.832a0.645,0.645,0,0,0,.05.716l1.01,1a0.62,0.62,0,0,0,.71.053l1.83-1.363a0.864,0.864,0,0,1,.75-0.047l0.45,0.187a0.863,0.863,0,0,1,.5.558l0.33,2.263a0.657,0.657,0,0,0,.54.488S1897.61,86,1898,86s0.71-.034.71-0.034a0.657,0.657,0,0,0,.54-0.488l0.33-2.263a0.863,0.863,0,0,1,.5-0.558l0.45-.187a0.864,0.864,0,0,1,.75.047l1.83,1.364a0.621,0.621,0,0,0,.71-0.053l1.01-1a0.645,0.645,0,0,0,.05-0.716l-1.36-1.832a0.848,0.848,0,0,1-.05-0.744l0.19-.454a0.818,0.818,0,0,1,.55-0.493ZM1898,81a4,4,0,1,1,4-4A4,4,0,0,1,1898,81Z" transform="translate(-1889 -68)"/>
</svg>
