<svg xmlns="http://www.w3.org/2000/svg" width="18" height="18" viewBox="0 0 18 18">
  <metadata><?xpacket begin="﻿" id="W5M0MpCehiHzreSzNTczkc9d"?>
<x:xmpmeta xmlns:x="adobe:ns:meta/" x:xmptk="Adobe XMP Core 5.6-c138 79.159824, 2016/09/14-01:09:01        ">
   <rdf:RDF xmlns:rdf="http://www.w3.org/1999/02/22-rdf-syntax-ns#">
      <rdf:Description rdf:about=""/>
   </rdf:RDF>
</x:xmpmeta>
                                                                                                    
                                                                                                    
                                                                                                    
                                                                                                    
                                                                                                    
                                                                                                    
                                                                                                    
                                                                                                    
                                                                                                    
                                                                                                    
                                                                                                    
                                                                                                    
                                                                                                    
                                                                                                    
                                                                                                    
                                                                                                    
                                                                                                    
                                                                                                    
                                                                                                    
                                                                                                    
                           
<?xpacket end="w"?></metadata>
<defs>
    <style>
      .cls-1 {
        fill: #9e9e9e;
        fill-rule: evenodd;
      }
    </style>
  </defs>
  <path id="Help_Mode" data-name="Help Mode" class="cls-1" d="M404.4,1073.64a9,9,0,1,1-12.736,0A8.986,8.986,0,0,1,404.4,1073.64Zm-0.708.7a8,8,0,1,1-11.32,0A8,8,0,0,1,403.688,1074.34Zm-1.415-1.41,2.83,2.83-11.32,11.31-2.831-2.83Zm2.83,11.31-2.83,2.83-11.321-11.31,2.831-2.83Zm-4.266-7.07a3.989,3.989,0,1,1-5.643,0A3.987,3.987,0,0,1,400.837,1077.17Zm-0.565.56a3.19,3.19,0,1,1-4.514,0A3.186,3.186,0,0,1,400.272,1077.73Z" transform="translate(-389.031 -1071)"/>
</svg>
